<svg width="45" height="11" viewBox="0 0 45 11" fill="none" xmlns="http://www.w3.org/2000/svg">
<path d="M0.046875 0H0.09375C0.410156 0.34375 0.722656 0.515625 1.03125 0.515625H1.99219C2.89453 0.625 3.45703 0.71875 3.67969 0.796875C3.89062 0.910156 4.10156 1.13672 4.3125 1.47656C4.3125 1.80469 4.17969 2.10156 3.91406 2.36719C3.66406 2.67969 3.5 2.83594 3.42188 2.83594C3.06641 3.07812 2.69922 3.21094 2.32031 3.23438V3.25781L2.67188 3.375C3.11328 3.49219 3.59766 3.76562 4.125 4.19531C4.125 4.24219 4.28125 4.41406 4.59375 4.71094C4.67188 4.90234 4.71094 5.09766 4.71094 5.29688V5.78906C4.71094 5.89062 4.63281 6.07031 4.47656 6.32812C4.20312 6.8125 3.66406 7.1875 2.85938 7.45312L2.27344 7.40625L1.99219 7.5L1.07812 7.52344L0.820312 7.5L0.703125 7.57031H0.679688L0.65625 7.54688H0.632812C0.613281 7.60938 0.542969 7.64062 0.421875 7.64062L0.351562 7.57031V7.54688C0.351562 7.52344 0.476562 7.42188 0.726562 7.24219C0.789062 7.24219 0.875 6.50781 0.984375 5.03906V4.45312L1.03125 4.38281V4.28906C0.96875 3.98047 0.929688 3.66797 0.914062 3.35156L0.890625 3.25781C0.859375 3.25781 0.804688 3.19531 0.726562 3.07031C0.695312 3.03906 0.625 3.02344 0.515625 3.02344L0.445312 2.92969V2.90625C0.464844 2.84375 0.535156 2.8125 0.65625 2.8125H0.867188V2.78906L0.84375 2.53125L0.890625 2.4375C0.84375 2.15625 0.804688 2.01562 0.773438 2.01562L0.796875 1.89844C0.71875 1.64453 0.65625 1.35547 0.609375 1.03125C0.53125 0.726562 0.34375 0.476562 0.046875 0.28125L0 0.117188V0.046875L0.046875 0ZM1.26562 1.26562C1.3125 1.46875 1.33594 1.75 1.33594 2.10938L1.28906 2.69531C1.31641 2.69531 1.34766 2.76562 1.38281 2.90625C1.44922 2.96875 1.52734 3 1.61719 3H2.17969C2.41406 2.86719 2.66406 2.75781 2.92969 2.67188C3.24219 2.47656 3.39844 2.25 3.39844 1.99219L3.46875 1.54688V1.40625C3.37891 1.14063 3.26172 1.00781 3.11719 1.00781C2.79688 0.855469 2.4375 0.753906 2.03906 0.703125H1.66406C1.47656 0.761719 1.38281 0.824219 1.38281 0.890625L1.26562 1.26562ZM1.33594 3.44531V3.49219L1.35938 3.67969L1.33594 3.79688C1.36719 4.25 1.39844 4.47656 1.42969 4.47656L1.38281 5.95312C1.40625 5.95312 1.42969 5.98438 1.45312 6.04688L1.42969 6.32812C1.47266 6.47266 1.52734 6.58984 1.59375 6.67969L1.57031 7.03125H1.61719L1.89844 7.00781L1.94531 7.05469H2.41406C2.58594 6.99219 2.70312 6.92969 2.76562 6.86719H2.78906L2.8125 6.89062C3.26172 6.69922 3.62891 6.44922 3.91406 6.14062C3.99219 6.01562 4.03125 5.91406 4.03125 5.83594V5.71875L3.96094 5.53125L3.98438 5.50781V5.48438L3.65625 4.80469C3.625 4.55859 3.42969 4.30078 3.07031 4.03125C3.07031 3.97656 2.97656 3.92188 2.78906 3.86719C2.625 3.69531 2.29688 3.55469 1.80469 3.44531L1.47656 3.39844H1.38281L1.33594 3.44531ZM5.66016 1.71094C5.91797 1.76562 6.24414 1.88086 6.63867 2.05664C6.82227 2.21289 6.91406 2.35938 6.91406 2.49609C6.98438 2.80078 7.01953 3.02344 7.01953 3.16406C7.01953 3.32031 6.94141 3.46094 6.78516 3.58594C6.78516 3.71484 6.45312 3.83008 5.78906 3.93164H5.66016C5.37109 3.81445 5.16797 3.6875 5.05078 3.55078L4.64648 3.14648L4.69336 3.10547C4.83008 3.20312 5.02539 3.38477 5.2793 3.65039C5.35742 3.65039 5.48438 3.7168 5.66016 3.84961L5.68359 3.83203H5.87695C6.14648 3.80078 6.37109 3.72656 6.55078 3.60938C6.63281 3.57812 6.73242 3.38867 6.84961 3.04102C6.77539 2.50586 6.66992 2.23828 6.5332 2.23828C6.27148 2.0625 5.98828 1.97461 5.68359 1.97461C5.34375 1.97461 5.09766 2.22266 4.94531 2.71875V2.80078C5.37109 3.36719 5.67383 3.65039 5.85352 3.65039H5.91797C6.24219 3.65039 6.44727 3.42773 6.5332 2.98242V2.7832C6.38477 2.4707 6.17188 2.31445 5.89453 2.31445L5.49023 2.25586L5.26172 2.61914V2.71875C5.53906 3.10547 5.71484 3.31445 5.78906 3.3457C6.10156 3.3457 6.25781 3.25781 6.25781 3.08203C6.28906 3.08203 6.30859 3.02148 6.31641 2.90039C6.10156 2.64648 5.93945 2.51953 5.83008 2.51953C5.66211 2.5625 5.57812 2.60938 5.57812 2.66016C5.57812 2.79688 5.64844 2.95117 5.78906 3.12305C5.91797 3.12305 6.00977 3.0625 6.06445 2.94141C6.01367 2.83203 5.94336 2.75781 5.85352 2.71875H5.78906L5.72461 2.85938L5.83008 3.02344C5.91602 3.00391 5.95898 2.95703 5.95898 2.88281L5.91797 2.82422L5.93555 2.80078H5.95898L6 2.88281C6 3.00391 5.94336 3.06445 5.83008 3.06445C5.74023 3.06445 5.67773 2.98438 5.64258 2.82422V2.70117C5.64258 2.66602 5.7207 2.625 5.87695 2.57812C6.08789 2.78906 6.19336 2.94336 6.19336 3.04102L5.8125 3.26367H5.78906C5.71484 3.26367 5.5957 3.04297 5.43164 2.60156V2.57812L5.78906 2.33789H5.83008C6.20898 2.57617 6.40625 2.73828 6.42188 2.82422L6.44531 2.88281C6.44531 3.17969 6.38867 3.32812 6.27539 3.32812C6.27539 3.35938 6.21875 3.39258 6.10547 3.42773L5.91797 3.55078H5.85352C5.61914 3.38672 5.4707 3.24414 5.4082 3.12305C5.22852 2.93555 5.10938 2.8418 5.05078 2.8418C5.16406 2.38477 5.29102 2.15625 5.43164 2.15625L6.10547 2.09766C6.31641 2.25781 6.42188 2.37109 6.42188 2.4375C6.60156 2.60938 6.70117 2.77148 6.7207 2.92383V2.96484C6.49414 3.48828 6.26758 3.75 6.04102 3.75L5.98242 3.76758H5.74805C5.66602 3.76758 5.44727 3.59961 5.0918 3.26367C4.89258 3.05664 4.79297 2.91602 4.79297 2.8418V2.74219C5.04297 2.1875 5.26953 1.88477 5.47266 1.83398C5.47266 1.80664 5.53516 1.76562 5.66016 1.71094ZM6.99609 3.91406L7.03711 3.97266V4.07227C6.77148 4.33789 6.63867 4.48633 6.63867 4.51758C6.48242 4.83008 6.4043 5.16602 6.4043 5.52539L6.36328 5.74805L6.50977 6.57422C6.5332 6.80859 6.58984 7.01172 6.67969 7.18359C6.77734 7.37109 6.97461 7.51172 7.27148 7.60547C7.3418 7.60547 7.37695 7.61914 7.37695 7.64648L7.35352 7.66406H7.29492L6.50977 7.48242L6.4043 7.50586H6.25781C5.67578 7.58008 5.33008 7.66016 5.2207 7.74609C5.16992 7.74609 5.11328 7.78711 5.05078 7.86914V7.9043C5.05078 7.93555 5.08594 7.95703 5.15625 7.96875C5.21094 7.95312 5.23828 7.92578 5.23828 7.88672H5.2793V7.9043C5.25195 7.98633 5.19531 8.02734 5.10938 8.02734H5.06836C4.99023 8.02734 4.92773 7.98633 4.88086 7.9043V7.8457C4.88086 7.75586 4.96484 7.66211 5.13281 7.56445C5.51562 7.26758 5.70703 7.02539 5.70703 6.83789C5.76172 6.73242 5.78906 6.63867 5.78906 6.55664H5.8125L5.78906 6.45703L5.8125 5.48438C5.8125 5.37109 5.75586 5.18945 5.64258 4.93945C5.5293 4.56445 5.35938 4.37695 5.13281 4.37695L5.06836 4.3125V4.29492L5.13281 4.23633H5.2207L5.4082 4.25391C5.99023 4.20312 6.42773 4.12305 6.7207 4.01367C6.81055 3.94727 6.90234 3.91406 6.99609 3.91406ZM8.73047 1.45898C8.79297 1.48633 8.83203 1.51758 8.84766 1.55273L8.47852 1.83984C8.25195 2.12891 8.10352 2.38867 8.0332 2.61914L8.05078 2.72461L8.02148 3.64453L8.05078 3.93164V3.97852L8.02148 4.0957V4.23047L8.05078 4.33594L8.02148 4.37109V4.38281L8.0332 4.44141L8.00391 4.62305L8.05078 4.65234H8.06836C8.29883 4.44922 8.48047 4.30859 8.61328 4.23047L9.03516 3.7207C9.05859 3.7207 9.11914 3.64062 9.2168 3.48047L9.25781 3.42188C9.32812 3.42188 9.41211 3.33594 9.50977 3.16406C9.58008 3.07031 9.63867 2.93945 9.68555 2.77148C9.64648 2.59961 9.56836 2.51367 9.45117 2.51367V2.48438L9.48047 2.45508H9.52148C9.66992 2.45508 9.90625 2.38477 10.2305 2.24414C10.4961 2.11523 10.7461 2.05078 10.9805 2.05078L11.0391 2.0918C11.0391 2.11523 10.9668 2.13672 10.8223 2.15625C10.6387 2.22266 10.4668 2.36719 10.3066 2.58984C10.0996 2.75781 9.99609 2.85938 9.99609 2.89453C9.95312 2.95312 9.92383 3.01758 9.9082 3.08789C9.73242 3.19336 9.64453 3.31445 9.64453 3.45117L9.3457 3.76758C9.33398 3.81055 9.28125 3.88086 9.1875 3.97852L8.90625 4.32422C8.88672 4.37109 8.76367 4.52734 8.53711 4.79297V4.80469L8.73047 5.27344L8.85938 5.63086C8.85938 5.66602 8.98242 5.92383 9.22852 6.4043C9.22852 6.43555 9.33203 6.58984 9.53906 6.86719C9.58594 6.92969 9.63086 7.03516 9.67383 7.18359C9.74414 7.30859 9.83594 7.42969 9.94922 7.54688C10.0234 7.67969 10.0879 7.76562 10.1426 7.80469C10.2324 7.84375 10.2773 7.89844 10.2773 7.96875C10.332 7.98438 10.4395 8.17969 10.5996 8.55469L10.8223 8.70703C10.959 8.83594 11.1055 8.93555 11.2617 9.00586C11.2656 9.0332 11.3301 9.07227 11.4551 9.12305L11.9531 9.19922C11.9844 9.19922 12.1074 9.07812 12.3223 8.83594C12.3809 8.75781 12.4102 8.66406 12.4102 8.55469V8.50781C12.4102 8.1875 12.2285 7.9668 11.8652 7.8457L11.7656 7.83398C11.6758 7.83398 11.5957 7.89844 11.5254 8.02734C11.4863 8.04297 11.3945 8.1543 11.25 8.36133V8.39062C11.3086 8.57031 11.4453 8.72461 11.6602 8.85352H11.6895C11.8496 8.85352 11.9824 8.75391 12.0879 8.55469C12.0879 8.34375 12.0293 8.21875 11.9121 8.17969C11.8652 8.14844 11.8203 8.13281 11.7773 8.13281C11.6328 8.13281 11.5254 8.23828 11.4551 8.44922C11.5176 8.55859 11.6055 8.63477 11.7188 8.67773C11.8164 8.67773 11.8711 8.61719 11.8828 8.49609C11.8633 8.35547 11.8047 8.28516 11.707 8.28516L11.6016 8.40234V8.44922C11.6406 8.5 11.6895 8.52539 11.748 8.52539L11.7949 8.50781V8.44922C11.7676 8.39844 11.7285 8.37305 11.6777 8.37305L11.707 8.34375H11.748C11.8184 8.41016 11.8535 8.4707 11.8535 8.52539C11.8145 8.58398 11.7754 8.61328 11.7363 8.61328C11.6348 8.57031 11.5605 8.50977 11.5137 8.43164C11.5137 8.39258 11.5586 8.32422 11.6484 8.22656H11.8535C11.9395 8.32422 11.9824 8.44336 11.9824 8.58398V8.61328C11.8848 8.72266 11.7832 8.77734 11.6777 8.77734C11.6387 8.77734 11.5391 8.67383 11.3789 8.4668V8.43164C11.4023 8.36133 11.4609 8.24609 11.5547 8.08594L11.9824 8.04492C12.0566 8.04492 12.1406 8.23047 12.2344 8.60156C11.918 8.89062 11.7324 9.03516 11.6777 9.03516L11.2793 8.66016C11.2012 8.52734 11.1621 8.44141 11.1621 8.40234V8.39062C11.1621 8.3125 11.2637 8.12109 11.4668 7.81641C11.5527 7.74609 11.666 7.71094 11.8066 7.71094H11.8828C12.0586 7.71094 12.2988 7.89258 12.6035 8.25586V8.28516C12.4824 8.94531 12.3457 9.27539 12.1934 9.27539C12.0137 9.37695 11.8223 9.42773 11.6191 9.42773L10.6582 9.09375L10.4531 8.85352C10.3359 8.5957 10.2188 8.40625 10.1016 8.28516C10.0195 8.28516 9.92578 8.16406 9.82031 7.92188C9.82031 7.89453 9.60938 7.54883 9.1875 6.88477C8.92969 6.60742 8.79688 6.41602 8.78906 6.31055C8.67969 6.16602 8.58984 6.00977 8.51953 5.8418C8.42578 5.7168 8.34766 5.58203 8.28516 5.4375C8.23438 5.35547 8.20117 5.31445 8.18555 5.31445L8.10938 5.41992L8.12695 5.49609V5.51367L8.0332 5.87695V6.26367L7.99219 6.46289L8.00391 6.68555L7.97461 6.71484V6.7793C7.97461 6.93164 8.04492 7.10156 8.18555 7.28906C8.2832 7.35547 8.33203 7.39648 8.33203 7.41211V7.45312L8.30273 7.5L8.28516 7.48828H8.09766C7.90234 7.50781 7.67969 7.5625 7.42969 7.65234L7.22461 7.74023L7.18359 7.80469H7.1543L7.125 7.76953V7.69922C7.25 7.52344 7.3125 7.32617 7.3125 7.10742C7.37109 6.96289 7.40039 6.82812 7.40039 6.70312C7.45898 6.70312 7.51367 6.5918 7.56445 6.36914C7.56445 6.2168 7.58984 6.07617 7.64062 5.94727L7.74023 5.04492V4.89258L7.65234 3.97852L7.66992 3.67383C7.66992 3.5957 7.64453 3.45117 7.59375 3.24023V3.21094L7.61133 3.19336C7.5918 2.9707 7.55078 2.81445 7.48828 2.72461C7.48828 2.5957 7.42969 2.48633 7.3125 2.39648L7.19531 2.37891L7.125 2.4082L7.04883 2.29102V2.27344C7.06445 2.25391 7.1875 2.21875 7.41797 2.16797C8.20703 1.72656 8.61914 1.50586 8.6543 1.50586C8.6543 1.48242 8.67969 1.4668 8.73047 1.45898ZM13.459 2.46094C13.7324 2.60938 13.9238 2.82422 14.0332 3.10547L14.1855 3.38086V3.42773L14.1621 3.44531L14.1855 3.46875V3.49219L14.209 4.11328L13.5469 4.85156C13.0156 4.60938 12.75 4.45508 12.75 4.38867L12.7324 4.31836V4.23047L12.8848 3.79102H13.1719C13.2734 3.86133 13.3242 3.93945 13.3242 4.02539V4.13672C13.2773 4.24609 13.2109 4.33008 13.125 4.38867C12.9648 4.36523 12.8848 4.28125 12.8848 4.13672L13.0605 4.00195L13.1953 4.13672L13.1484 4.18359H13.125L13.1484 4.16016V4.11328L13.0605 4.08984C13.002 4.11328 12.9727 4.13672 12.9727 4.16016V4.18359L13.0195 4.27734H13.1074C13.1934 4.21484 13.2363 4.15234 13.2363 4.08984C13.1855 3.98438 13.0977 3.9082 12.9727 3.86133C12.8555 4.05664 12.7969 4.19531 12.7969 4.27734C13.1055 4.47656 13.3477 4.57617 13.5234 4.57617C13.582 4.48242 13.6191 4.375 13.6348 4.25391C13.6348 4.10547 13.5098 3.86719 13.2598 3.53906L13.0605 3.24023V3.19336H13.0371C12.5098 3.4707 12.2305 3.63281 12.1992 3.67969L12.1758 3.70312V3.72656L12.1992 3.81445L12 4.36523L12.0703 4.43555C12.0234 4.49023 12 4.54492 12 4.59961V4.73438L12.1113 4.875L12.0879 5.15039V5.19727C12.1621 5.44336 12.1992 5.63477 12.1992 5.77148V6.13477L12.2695 6.52734L12.2227 6.57422C12.2305 6.75781 12.2461 6.84961 12.2695 6.84961C12.3164 6.84961 12.3516 6.93359 12.375 7.10156L12.8203 7.60547C12.7656 7.68359 12.7207 7.72266 12.6855 7.72266L11.8242 7.51758H11.5137L11.1621 7.55859H10.8984L10.8105 7.4707V7.42383C10.8105 7.31836 10.9199 7.21094 11.1387 7.10156L11.3203 6.80273C11.3203 6.6582 11.4004 6.48242 11.5605 6.27539C11.6035 6.20898 11.625 6.13281 11.625 6.04688L11.6074 6.02344H11.584L11.6074 5.85938C11.5957 5.72266 11.5801 5.6543 11.5605 5.6543L11.625 5.05664V4.93945C11.625 4.79883 11.582 4.66211 11.4961 4.5293C11.5703 4.50195 11.6074 4.46289 11.6074 4.41211C11.5605 4.41211 11.4941 4.13672 11.4082 3.58594C11.4082 3.53125 11.3262 3.47852 11.1621 3.42773H11.0742C10.9727 3.49023 10.9219 3.53516 10.9219 3.5625V3.58594C10.9219 3.69141 10.9727 3.74414 11.0742 3.74414H11.0977L11.1855 3.63281V3.60938C11.1855 3.57812 11.1641 3.5625 11.1211 3.5625L11.0977 3.53906V3.51562H11.1387C11.2441 3.51562 11.2969 3.57031 11.2969 3.67969V3.70312C11.2109 3.83984 11.123 3.9082 11.0332 3.9082C10.8145 3.9082 10.6738 3.74805 10.6113 3.42773C10.6113 3.09961 10.7734 2.87695 11.0977 2.75977C11.3242 2.75977 11.5449 2.83594 11.7598 2.98828L12.1348 2.7832C12.8613 2.64258 13.2441 2.55078 13.2832 2.50781C13.2832 2.47656 13.3418 2.46094 13.459 2.46094ZM15.1934 2.86523C15.4668 2.86523 15.7852 2.97461 16.1484 3.19336L16.6465 3.82031C16.6465 3.85156 16.7051 3.95312 16.8223 4.125C16.8223 4.25 16.9023 4.49023 17.0625 4.8457C17.082 4.94727 17.1211 5.02344 17.1797 5.07422L17.1621 5.26172V5.47266L17.2031 5.79492L17.1621 6.08203L17.1797 6.23438L17.1621 6.86133C17.2363 7.17773 17.3086 7.33594 17.3789 7.33594L17.6191 7.54688V7.64062L17.4785 7.77539C17.2754 7.74414 17.1641 7.71875 17.1445 7.69922H16.7051L16.3652 7.81055C16.2051 7.73242 16.1191 7.67578 16.1074 7.64062V7.62305C16.1465 7.56836 16.2402 7.50391 16.3887 7.42969C16.4746 7.38672 16.5527 7.23438 16.623 6.97266L16.6641 6.84375L16.5879 6.78516C16.4238 6.99609 16.2109 7.16016 15.9492 7.27734C15.4297 7.48047 15.0781 7.58203 14.8945 7.58203C14.8398 7.58203 14.7012 7.52539 14.4785 7.41211C14.3496 7.29492 14.2578 7.19336 14.2031 7.10742L14.2207 7.08984V7.07227L14.1211 6.84375C14.1758 6.59766 14.334 6.33789 14.5957 6.06445C14.5957 5.99023 14.8672 5.73633 15.4102 5.30273L16.1074 4.8457C16.1582 4.8457 16.2246 4.79492 16.3066 4.69336H16.3301V4.67578L16.1484 3.93164C15.9609 3.64258 15.8027 3.46484 15.6738 3.39844C15.502 3.30859 15.3945 3.26367 15.3516 3.26367H15.3164C15.25 3.26367 15.1504 3.34766 15.0176 3.51562C14.9746 3.52734 14.9531 3.56445 14.9531 3.62695C14.9844 3.62695 15.0059 3.69141 15.0176 3.82031C15.1543 4.02344 15.3262 4.125 15.5332 4.125L15.6094 4.25391V4.37109L15.5508 4.42969H15.5332C15.1035 4.42969 14.791 4.25195 14.5957 3.89648C14.5605 3.8418 14.541 3.74023 14.5371 3.5918V3.43945C14.5879 3.2793 14.6738 3.14648 14.7949 3.04102C14.9746 2.92383 15.1074 2.86523 15.1934 2.86523ZM16.3066 5.13281H16.1895C16.0293 5.17969 15.9238 5.24805 15.873 5.33789C15.8379 5.33789 15.7383 5.42773 15.5742 5.60742C15.2695 5.80273 15.0625 6.07422 14.9531 6.42188C14.9141 6.42188 14.8887 6.55664 14.877 6.82617C15.0176 6.95117 15.1035 7.01367 15.1348 7.01367L15.1934 7.03125L15.2168 7.01367V6.99609L15.334 7.01367L15.8086 6.82617C15.8555 6.82617 16.0078 6.72461 16.2656 6.52148L16.3301 6.44531L16.4473 6.31055H16.4648L16.4883 6.32812H16.5059C16.5059 6.25781 16.5332 6.20703 16.5879 6.17578L16.623 5.85352L16.6055 5.71875L16.623 5.58984C16.623 5.34766 16.5781 5.14453 16.4883 4.98047C16.3672 4.99609 16.3066 5.04688 16.3066 5.13281ZM19.6406 1.58203C19.7461 1.58203 19.8184 1.66992 19.8574 1.8457C19.8145 1.97461 19.7422 2.03906 19.6406 2.03906H19.5703C19.4922 2 19.4531 1.93555 19.4531 1.8457L19.4766 1.82227H19.5C19.5039 1.9043 19.5273 1.94531 19.5703 1.94531H19.6172L19.6875 1.875V1.82227L19.5938 1.72852C19.3438 1.72852 19.1875 2.08203 19.125 2.78906V2.8125L19.1484 2.93555H19.1719C19.3438 2.63086 19.5 2.47852 19.6406 2.47852L19.7812 2.33203L20.2559 2.54883C20.4121 2.61133 20.4902 2.73242 20.4902 2.91211C20.584 3.31055 20.6777 3.56836 20.7715 3.68555C20.7715 3.58008 20.834 3.43555 20.959 3.25195L21.3633 2.71875C21.4609 2.52344 21.6172 2.42578 21.832 2.42578L21.9492 2.33203H22.0898L22.1836 2.45508C22.2891 2.45508 22.4531 2.70312 22.6758 3.19922L22.8164 3.39258V3.70898L22.793 4.04883C22.8242 4.29102 22.8398 4.63672 22.8398 5.08594L23.0566 5.64258L23.1504 6.36914C23.1113 6.36914 23.0879 6.40234 23.0801 6.46875C23.0801 6.66406 23.166 6.91211 23.3379 7.21289C23.3613 7.37305 23.4551 7.55078 23.6191 7.74609L23.5723 7.79297C23.3105 7.64844 23.0586 7.57617 22.8164 7.57617L22.7461 7.59961V7.57617C22.375 7.62695 21.9844 7.69922 21.5742 7.79297C21.5312 7.79297 21.4844 7.71289 21.4336 7.55273C21.6797 7.47461 21.8281 7.38672 21.8789 7.28906C21.9805 7.28906 22.043 7.08789 22.0664 6.68555L22.2773 6.17578L22.2539 6.10547C22.2539 5.94141 22.3086 5.74805 22.418 5.52539L22.4414 4.94531V4.69922C22.4414 4.65234 22.4023 4.56445 22.3242 4.43555C22.2148 3.98633 22.1055 3.72852 21.9961 3.66211C21.875 3.30664 21.7344 3.12891 21.5742 3.12891C21.5742 3.27344 21.4082 3.66016 21.0762 4.28906L20.9121 5.18555C20.873 5.44727 20.8262 5.60742 20.7715 5.66602C20.5371 5.66602 20.4199 5.61914 20.4199 5.52539C20.3457 4.61523 20.2051 3.92969 19.998 3.46875C19.998 3.375 19.918 3.30273 19.7578 3.25195H19.6641C19.4453 3.39648 19.2891 3.58203 19.1953 3.80859V3.85547L19.2422 3.90234L19.125 4.41211L19.0547 4.45898L19.0781 4.75195L19.0078 5.61914C18.9727 5.61914 18.9492 5.75586 18.9375 6.0293L19.3594 6.97266L19.3359 6.99609C19.3672 7 19.4453 7.11328 19.5703 7.33594L19.9043 7.57617C19.8809 7.64258 19.8398 7.69141 19.7812 7.72266H19.6875C19.5039 7.58984 19.332 7.51758 19.1719 7.50586C18.8086 7.50586 18.4004 7.63477 17.9473 7.89258L17.8535 7.76953C18.0293 7.66016 18.1719 7.49219 18.2812 7.26562L18.5625 6.5625L18.5391 6.53906V6.51562L18.5625 6.49219V6.46875L18.4922 6.29883V6.17578H18.4453V5.95898L18.5625 5.64258V5.13867C18.5 5.0332 18.4688 4.84766 18.4688 4.58203L18.5859 4.5293L18.4922 4.21875V4.07227H18.4453V4.00195L18.4688 3.97852C18.4023 3.73633 18.2129 3.52539 17.9004 3.3457C17.6348 3.27539 17.502 3.21875 17.502 3.17578V3.10547C17.502 3.07422 17.5273 3.05859 17.5781 3.05859L17.9004 3.17578H18.041C18.3145 3.17578 18.668 2.78125 19.1016 1.99219C19.3242 1.71875 19.5039 1.58203 19.6406 1.58203ZM26.5312 0H26.5781C26.8945 0.34375 27.207 0.515625 27.5156 0.515625H28.4766C29.3789 0.625 29.9414 0.71875 30.1641 0.796875C30.375 0.910156 30.5859 1.13672 30.7969 1.47656C30.7969 1.80469 30.6641 2.10156 30.3984 2.36719C30.1484 2.67969 29.9844 2.83594 29.9062 2.83594C29.5508 3.07812 29.1836 3.21094 28.8047 3.23438V3.25781L29.1562 3.375C29.5977 3.49219 30.082 3.76562 30.6094 4.19531C30.6094 4.24219 30.7656 4.41406 31.0781 4.71094C31.1562 4.90234 31.1953 5.09766 31.1953 5.29688V5.78906C31.1953 5.89062 31.1172 6.07031 30.9609 6.32812C30.6875 6.8125 30.1484 7.1875 29.3438 7.45312L28.7578 7.40625L28.4766 7.5L27.5625 7.52344L27.3047 7.5L27.1875 7.57031H27.1641L27.1406 7.54688H27.1172C27.0977 7.60938 27.0273 7.64062 26.9062 7.64062L26.8359 7.57031V7.54688C26.8359 7.52344 26.9609 7.42188 27.2109 7.24219C27.2734 7.24219 27.3594 6.50781 27.4688 5.03906V4.45312L27.5156 4.38281V4.28906C27.4531 3.98047 27.4141 3.66797 27.3984 3.35156L27.375 3.25781C27.3438 3.25781 27.2891 3.19531 27.2109 3.07031C27.1797 3.03906 27.1094 3.02344 27 3.02344L26.9297 2.92969V2.90625C26.9492 2.84375 27.0195 2.8125 27.1406 2.8125H27.3516V2.78906L27.3281 2.53125L27.375 2.4375C27.3281 2.15625 27.2891 2.01562 27.2578 2.01562L27.2812 1.89844C27.2031 1.64453 27.1406 1.35547 27.0938 1.03125C27.0156 0.726562 26.8281 0.476562 26.5312 0.28125L26.4844 0.117188V0.046875L26.5312 0ZM27.75 1.26562C27.7969 1.46875 27.8203 1.75 27.8203 2.10938L27.7734 2.69531C27.8008 2.69531 27.832 2.76562 27.8672 2.90625C27.9336 2.96875 28.0117 3 28.1016 3H28.6641C28.8984 2.86719 29.1484 2.75781 29.4141 2.67188C29.7266 2.47656 29.8828 2.25 29.8828 1.99219L29.9531 1.54688V1.40625C29.8633 1.14063 29.7461 1.00781 29.6016 1.00781C29.2812 0.855469 28.9219 0.753906 28.5234 0.703125H28.1484C27.9609 0.761719 27.8672 0.824219 27.8672 0.890625L27.75 1.26562ZM27.8203 3.44531V3.49219L27.8438 3.67969L27.8203 3.79688C27.8516 4.25 27.8828 4.47656 27.9141 4.47656L27.8672 5.95312C27.8906 5.95312 27.9141 5.98438 27.9375 6.04688L27.9141 6.32812C27.957 6.47266 28.0117 6.58984 28.0781 6.67969L28.0547 7.03125H28.1016L28.3828 7.00781L28.4297 7.05469H28.8984C29.0703 6.99219 29.1875 6.92969 29.25 6.86719H29.2734L29.2969 6.89062C29.7461 6.69922 30.1133 6.44922 30.3984 6.14062C30.4766 6.01562 30.5156 5.91406 30.5156 5.83594V5.71875L30.4453 5.53125L30.4688 5.50781V5.48438L30.1406 4.80469C30.1094 4.55859 29.9141 4.30078 29.5547 4.03125C29.5547 3.97656 29.4609 3.92188 29.2734 3.86719C29.1094 3.69531 28.7812 3.55469 28.2891 3.44531L27.9609 3.39844H27.8672L27.8203 3.44531ZM32.3027 2.86523C32.5762 2.86523 32.8945 2.97461 33.2578 3.19336L33.7559 3.82031C33.7559 3.85156 33.8145 3.95312 33.9316 4.125C33.9316 4.25 34.0117 4.49023 34.1719 4.8457C34.1914 4.94727 34.2305 5.02344 34.2891 5.07422L34.2715 5.26172V5.47266L34.3125 5.79492L34.2715 6.08203L34.2891 6.23438L34.2715 6.86133C34.3457 7.17773 34.418 7.33594 34.4883 7.33594L34.7285 7.54688V7.64062L34.5879 7.77539C34.3848 7.74414 34.2734 7.71875 34.2539 7.69922H33.8145L33.4746 7.81055C33.3145 7.73242 33.2285 7.67578 33.2168 7.64062V7.62305C33.2559 7.56836 33.3496 7.50391 33.498 7.42969C33.584 7.38672 33.6621 7.23438 33.7324 6.97266L33.7734 6.84375L33.6973 6.78516C33.5332 6.99609 33.3203 7.16016 33.0586 7.27734C32.5391 7.48047 32.1875 7.58203 32.0039 7.58203C31.9492 7.58203 31.8105 7.52539 31.5879 7.41211C31.459 7.29492 31.3672 7.19336 31.3125 7.10742L31.3301 7.08984V7.07227L31.2305 6.84375C31.2852 6.59766 31.4434 6.33789 31.7051 6.06445C31.7051 5.99023 31.9766 5.73633 32.5195 5.30273L33.2168 4.8457C33.2676 4.8457 33.334 4.79492 33.416 4.69336H33.4395V4.67578L33.2578 3.93164C33.0703 3.64258 32.9121 3.46484 32.7832 3.39844C32.6113 3.30859 32.5039 3.26367 32.4609 3.26367H32.4258C32.3594 3.26367 32.2598 3.34766 32.127 3.51562C32.084 3.52734 32.0625 3.56445 32.0625 3.62695C32.0938 3.62695 32.1152 3.69141 32.127 3.82031C32.2637 4.02344 32.4355 4.125 32.6426 4.125L32.7188 4.25391V4.37109L32.6602 4.42969H32.6426C32.2129 4.42969 31.9004 4.25195 31.7051 3.89648C31.6699 3.8418 31.6504 3.74023 31.6465 3.5918V3.43945C31.6973 3.2793 31.7832 3.14648 31.9043 3.04102C32.084 2.92383 32.2168 2.86523 32.3027 2.86523ZM33.416 5.13281H33.2988C33.1387 5.17969 33.0332 5.24805 32.9824 5.33789C32.9473 5.33789 32.8477 5.42773 32.6836 5.60742C32.3789 5.80273 32.1719 6.07422 32.0625 6.42188C32.0234 6.42188 31.998 6.55664 31.9863 6.82617C32.127 6.95117 32.2129 7.01367 32.2441 7.01367L32.3027 7.03125L32.3262 7.01367V6.99609L32.4434 7.01367L32.918 6.82617C32.9648 6.82617 33.1172 6.72461 33.375 6.52148L33.4395 6.44531L33.5566 6.31055H33.5742L33.5977 6.32812H33.6152C33.6152 6.25781 33.6426 6.20703 33.6973 6.17578L33.7324 5.85352L33.7148 5.71875L33.7324 5.58984C33.7324 5.34766 33.6875 5.14453 33.5977 4.98047C33.4766 4.99609 33.416 5.04688 33.416 5.13281ZM38.1855 2.75977C38.3066 2.78711 38.3672 2.84766 38.3672 2.94141C38.3672 3.02734 38.3281 3.07031 38.25 3.07031H38.2148L38.1738 3.0293V2.9707L38.2148 2.92383H38.2324V2.94141L38.2031 2.98242V3L38.2324 3.0293H38.2793L38.3086 2.94141C38.2969 2.90234 38.2656 2.88281 38.2148 2.88281C38.0781 2.88281 37.9141 3.04492 37.7227 3.36914L37.6465 3.62109L37.6641 3.83789L37.6465 4.11914L37.6758 4.23633V4.37109C37.6406 4.53516 37.6055 4.88477 37.5703 5.41992L37.4648 5.99414L37.2715 7.07227C37.2559 7.07227 37.2051 7.19531 37.1191 7.44141C37.0879 7.58594 37.0039 7.78906 36.8672 8.05078C36.8477 8.05469 36.7422 8.24609 36.5508 8.625C36.4453 8.78516 36.2949 8.95117 36.0996 9.12305C36.0215 9.15039 35.9316 9.21484 35.8301 9.31641C35.6621 9.44141 35.5117 9.52539 35.3789 9.56836C35.3633 9.61133 35.1836 9.69922 34.8398 9.83203C34.8281 9.86328 34.5938 9.95312 34.1367 10.1016C33.8398 10.2266 33.5801 10.2891 33.3574 10.2891H33.1934C32.9395 10.2578 32.6543 10.1016 32.3379 9.82031C32.1855 9.63672 32.1094 9.46875 32.1094 9.31641C32.1094 9.03125 32.2051 8.83984 32.3965 8.74219C32.459 8.70312 32.5938 8.68359 32.8008 8.68359H32.877C33.0762 8.68359 33.2109 8.77734 33.2812 8.96484C33.3242 9.07031 33.3457 9.16211 33.3457 9.24023C33.3027 9.49023 33.2109 9.61523 33.0703 9.61523L32.8184 9.64453C32.5371 9.58984 32.3965 9.46094 32.3965 9.25781C32.3965 9.02344 32.5215 8.90625 32.7715 8.90625C32.9629 8.92969 33.0586 9.00781 33.0586 9.14062L33.0703 9.21094C33.0703 9.33203 32.9707 9.40625 32.7715 9.43359C32.6309 9.39453 32.5605 9.31641 32.5605 9.19922V9.18164C32.5605 9.11914 32.6055 9.08008 32.6953 9.06445H32.7305C32.7812 9.06445 32.8203 9.08984 32.8477 9.14062V9.18164C32.8477 9.23242 32.832 9.26367 32.8008 9.27539H32.7598V9.25781L32.7891 9.21094V9.16992L32.7422 9.12305H32.6953C32.6562 9.13867 32.6367 9.18359 32.6367 9.25781C32.6836 9.30859 32.7344 9.33789 32.7891 9.3457C32.8984 9.31445 32.9531 9.25977 32.9531 9.18164V9.16992C32.9531 9.06055 32.873 8.99609 32.7129 8.97656H32.6953C32.5586 9.02734 32.4902 9.10156 32.4902 9.19922V9.24023C32.4902 9.41211 32.6289 9.51172 32.9062 9.53906C33.1055 9.51562 33.2051 9.41602 33.2051 9.24023L33.2227 9.18164V9.15234C33.1836 8.90625 33.0586 8.7832 32.8477 8.7832L32.7422 8.77148H32.7305C32.5273 8.77148 32.3867 8.875 32.3086 9.08203L32.291 9.25781V9.27539C32.291 9.5293 32.4414 9.70508 32.7422 9.80273C32.9336 9.86133 33.1348 9.89062 33.3457 9.89062L33.7617 9.86133C33.7617 9.83789 33.877 9.80859 34.1074 9.77344C34.1074 9.75 34.1777 9.7207 34.3184 9.68555C34.3496 9.64258 34.4688 9.60352 34.6758 9.56836C34.6758 9.53711 34.7598 9.49805 34.9277 9.45117C34.9316 9.42773 35.0273 9.36328 35.2148 9.25781C35.3867 9.10547 35.5625 8.98242 35.7422 8.88867C35.7422 8.86133 35.9219 8.67969 36.2812 8.34375C36.457 8.11328 36.5566 7.90625 36.5801 7.72266C36.6699 7.62891 36.7852 7.25586 36.9258 6.60352L36.9844 6.46875V6.30469L36.9727 6.01172C36.9805 5.94141 37.0098 5.85352 37.0605 5.74805L37.0137 5.47852V5.36133C36.9668 5.4082 36.8379 5.47266 36.627 5.55469C36.459 5.66406 36.3145 5.71875 36.1934 5.71875L35.6484 5.84766C35.5117 5.8125 35.3984 5.77344 35.3086 5.73047H35.1387C34.9629 5.64453 34.8594 5.56055 34.8281 5.47852L34.8398 5.09766C34.8633 5.09766 34.8984 4.97461 34.9453 4.72852C35.1367 4.52539 35.2324 4.39648 35.2324 4.3418C35.2324 4.27539 35.2969 4.18164 35.4258 4.06055C35.5039 3.80664 35.6133 3.64453 35.7539 3.57422L36.2637 3.2168L36.5508 3.1582H36.8086C37.0078 3.1582 37.373 3.04102 37.9043 2.80664L38.1855 2.75977ZM35.4082 5.06836V5.08008C35.5684 5.24805 35.7051 5.33203 35.8184 5.33203H35.9238C36.3223 5.25781 36.5215 5.20312 36.5215 5.16797C36.6387 5.08203 36.7695 5.01367 36.9141 4.96289L37.1191 4.81641L37.1367 4.42969L37.0898 4.3418V4.22461C37.0547 3.98633 37 3.81836 36.9258 3.7207C36.8906 3.5918 36.8555 3.52344 36.8203 3.51562H36.6855C36.4121 3.63281 36.207 3.76562 36.0703 3.91406C35.9258 4.02344 35.7969 4.2207 35.6836 4.50586C35.6133 4.54883 35.5527 4.66602 35.502 4.85742C35.502 4.89258 35.4707 4.96289 35.4082 5.06836ZM40.5234 1.44141C40.625 1.44141 40.8418 1.51758 41.1738 1.66992L41.4434 1.72852H41.8828L42.4922 1.70508L42.5332 1.76367V1.80469C42.5332 1.82812 42.457 1.86719 42.3047 1.92188C42.3047 1.95312 42.2285 1.99023 42.0762 2.0332L41.7656 2.53711L41.7891 2.61328L41.748 2.72461V2.7832L41.6895 3.48047L41.6543 3.51562V3.66797L41.707 4.38281L41.8066 4.45898V4.5C41.8066 4.52344 41.7734 4.53516 41.707 4.53516C41.6211 4.74219 41.5781 5.03711 41.5781 5.41992L41.5957 5.7832L41.5195 6.65039C41.6211 7.08789 41.7031 7.30664 41.7656 7.30664L41.8652 7.42383V7.45898L41.8242 7.5H41.6543L41.4199 7.55859H41.1738C41.1348 7.51172 41.0195 7.47852 40.8281 7.45898L40.7344 7.44141L40.7109 7.42383V7.40039C40.9297 7.17773 41.0391 6.93555 41.0391 6.67383L41.0977 6.45703L41.0801 6.13477L41.0977 6.01758L41.0801 5.86523L41.1328 5.38477L41.0566 5.01562L40.998 4.93945L40.9805 4.92188H40.9629L41.0391 4.80469V4.66992L40.998 4.63477H40.8281C40.0273 4.74023 39.5996 4.86133 39.5449 4.99805C39.3496 5.06055 39.1445 5.18164 38.9297 5.36133C38.8672 5.43164 38.8359 5.61133 38.8359 5.90039C38.8359 5.97852 38.8867 6.04883 38.9883 6.11133C39.1172 6.31445 39.2715 6.46289 39.4512 6.55664C39.9707 6.82617 40.2578 6.96094 40.3125 6.96094H40.4648C40.7344 6.96094 40.8691 6.85742 40.8691 6.65039V6.63281C40.8066 6.54297 40.7363 6.49805 40.6582 6.49805H40.6348C40.5684 6.5293 40.5176 6.58008 40.4824 6.65039V6.67383L40.5586 6.76758H40.5996C40.627 6.75977 40.6523 6.72852 40.6758 6.67383L40.6172 6.65039V6.61523H40.6348L40.7109 6.69141C40.7109 6.76172 40.668 6.82617 40.582 6.88477C40.4453 6.88477 40.3672 6.79492 40.3477 6.61523C40.3477 6.47461 40.4629 6.4043 40.6934 6.4043C40.8223 6.4043 40.918 6.5 40.9805 6.69141C40.9805 6.85156 40.9238 6.96094 40.8105 7.01953C40.584 7.23438 40.373 7.3418 40.1777 7.3418C39.6855 7.15039 39.4102 7.05469 39.3516 7.05469C39.0469 6.96094 38.8184 6.77539 38.666 6.49805C38.5762 6.49805 38.4609 6.34375 38.3203 6.03516L38.2617 5.6543C38.2617 5.29883 38.3516 5.0918 38.5312 5.0332C38.582 4.89258 38.6582 4.82227 38.7598 4.82227C38.8691 4.73242 39.0742 4.60547 39.375 4.44141C39.5469 4.375 39.8262 4.32227 40.2129 4.2832C40.7637 4.23242 41.0391 4.18164 41.0391 4.13086H41.0801V4.11328C41.0801 3.82812 41.0664 3.64258 41.0391 3.55664L41.0566 3.48047L41.0391 3.39844C41.0781 3.39844 41.0977 3.32812 41.0977 3.1875V3.12891C41.0742 2.70703 41.0488 2.49609 41.0215 2.49609L41.0391 2.4375C41.0391 2.34766 40.9824 2.2207 40.8691 2.05664C40.7129 1.70898 40.5645 1.53516 40.4238 1.53516L40.3711 1.45898L40.3887 1.44141H40.5234ZM41.291 1.53516H41.3438V1.57617H41.291V1.53516ZM43.2773 1.71094C43.5352 1.76562 43.8613 1.88086 44.2559 2.05664C44.4395 2.21289 44.5312 2.35938 44.5312 2.49609C44.6016 2.80078 44.6367 3.02344 44.6367 3.16406C44.6367 3.32031 44.5586 3.46094 44.4023 3.58594C44.4023 3.71484 44.0703 3.83008 43.4062 3.93164H43.2773C42.9883 3.81445 42.7852 3.6875 42.668 3.55078L42.2637 3.14648L42.3105 3.10547C42.4473 3.20312 42.6426 3.38477 42.8965 3.65039C42.9746 3.65039 43.1016 3.7168 43.2773 3.84961L43.3008 3.83203H43.4941C43.7637 3.80078 43.9883 3.72656 44.168 3.60938C44.25 3.57812 44.3496 3.38867 44.4668 3.04102C44.3926 2.50586 44.2871 2.23828 44.1504 2.23828C43.8887 2.0625 43.6055 1.97461 43.3008 1.97461C42.9609 1.97461 42.7148 2.22266 42.5625 2.71875V2.80078C42.9883 3.36719 43.291 3.65039 43.4707 3.65039H43.5352C43.8594 3.65039 44.0645 3.42773 44.1504 2.98242V2.7832C44.002 2.4707 43.7891 2.31445 43.5117 2.31445L43.1074 2.25586L42.8789 2.61914V2.71875C43.1562 3.10547 43.332 3.31445 43.4062 3.3457C43.7188 3.3457 43.875 3.25781 43.875 3.08203C43.9062 3.08203 43.9258 3.02148 43.9336 2.90039C43.7188 2.64648 43.5566 2.51953 43.4473 2.51953C43.2793 2.5625 43.1953 2.60938 43.1953 2.66016C43.1953 2.79688 43.2656 2.95117 43.4062 3.12305C43.5352 3.12305 43.627 3.0625 43.6816 2.94141C43.6309 2.83203 43.5605 2.75781 43.4707 2.71875H43.4062L43.3418 2.85938L43.4473 3.02344C43.5332 3.00391 43.5762 2.95703 43.5762 2.88281L43.5352 2.82422L43.5527 2.80078H43.5762L43.6172 2.88281C43.6172 3.00391 43.5605 3.06445 43.4473 3.06445C43.3574 3.06445 43.2949 2.98438 43.2598 2.82422V2.70117C43.2598 2.66602 43.3379 2.625 43.4941 2.57812C43.7051 2.78906 43.8105 2.94336 43.8105 3.04102L43.4297 3.26367H43.4062C43.332 3.26367 43.2129 3.04297 43.0488 2.60156V2.57812L43.4062 2.33789H43.4473C43.8262 2.57617 44.0234 2.73828 44.0391 2.82422L44.0625 2.88281C44.0625 3.17969 44.0059 3.32812 43.8926 3.32812C43.8926 3.35938 43.8359 3.39258 43.7227 3.42773L43.5352 3.55078H43.4707C43.2363 3.38672 43.0879 3.24414 43.0254 3.12305C42.8457 2.93555 42.7266 2.8418 42.668 2.8418C42.7812 2.38477 42.9082 2.15625 43.0488 2.15625L43.7227 2.09766C43.9336 2.25781 44.0391 2.37109 44.0391 2.4375C44.2188 2.60938 44.3184 2.77148 44.3379 2.92383V2.96484C44.1113 3.48828 43.8848 3.75 43.6582 3.75L43.5996 3.76758H43.3652C43.2832 3.76758 43.0645 3.59961 42.709 3.26367C42.5098 3.05664 42.4102 2.91602 42.4102 2.8418V2.74219C42.6602 2.1875 42.8867 1.88477 43.0898 1.83398C43.0898 1.80664 43.1523 1.76562 43.2773 1.71094ZM44.6133 3.91406L44.6543 3.97266V4.07227C44.3887 4.33789 44.2559 4.48633 44.2559 4.51758C44.0996 4.83008 44.0215 5.16602 44.0215 5.52539L43.9805 5.74805L44.127 6.57422C44.1504 6.80859 44.207 7.01172 44.2969 7.18359C44.3945 7.37109 44.5918 7.51172 44.8887 7.60547C44.959 7.60547 44.9941 7.61914 44.9941 7.64648L44.9707 7.66406H44.9121L44.127 7.48242L44.0215 7.50586H43.875C43.293 7.58008 42.9473 7.66016 42.8379 7.74609C42.7871 7.74609 42.7305 7.78711 42.668 7.86914V7.9043C42.668 7.93555 42.7031 7.95703 42.7734 7.96875C42.8281 7.95312 42.8555 7.92578 42.8555 7.88672H42.8965V7.9043C42.8691 7.98633 42.8125 8.02734 42.7266 8.02734H42.6855C42.6074 8.02734 42.5449 7.98633 42.498 7.9043V7.8457C42.498 7.75586 42.582 7.66211 42.75 7.56445C43.1328 7.26758 43.3242 7.02539 43.3242 6.83789C43.3789 6.73242 43.4062 6.63867 43.4062 6.55664H43.4297L43.4062 6.45703L43.4297 5.48438C43.4297 5.37109 43.373 5.18945 43.2598 4.93945C43.1465 4.56445 42.9766 4.37695 42.75 4.37695L42.6855 4.3125V4.29492L42.75 4.23633H42.8379L43.0254 4.25391C43.6074 4.20312 44.0449 4.12305 44.3379 4.01367C44.4277 3.94727 44.5195 3.91406 44.6133 3.91406Z" fill="white"/>
</svg>