<svg width="37" height="12" viewBox="0 0 37 12" fill="none" xmlns="http://www.w3.org/2000/svg">
<path d="M0.046875 0.421875H0.09375C0.410156 0.765625 0.722656 0.9375 1.03125 0.9375H1.99219C2.89453 1.04688 3.45703 1.14063 3.67969 1.21875C3.89062 1.33203 4.10156 1.55859 4.3125 1.89844C4.3125 2.22656 4.17969 2.52344 3.91406 2.78906C3.66406 3.10156 3.5 3.25781 3.42188 3.25781C3.06641 3.5 2.69922 3.63281 2.32031 3.65625V3.67969L2.67188 3.79688C3.11328 3.91406 3.59766 4.1875 4.125 4.61719C4.125 4.66406 4.28125 4.83594 4.59375 5.13281C4.67188 5.32422 4.71094 5.51953 4.71094 5.71875V6.21094C4.71094 6.3125 4.63281 6.49219 4.47656 6.75C4.20312 7.23438 3.66406 7.60938 2.85938 7.875L2.27344 7.82812L1.99219 7.92188L1.07812 7.94531L0.820312 7.92188L0.703125 7.99219H0.679688L0.65625 7.96875H0.632812C0.613281 8.03125 0.542969 8.0625 0.421875 8.0625L0.351562 7.99219V7.96875C0.351562 7.94531 0.476562 7.84375 0.726562 7.66406C0.789062 7.66406 0.875 6.92969 0.984375 5.46094V4.875L1.03125 4.80469V4.71094C0.96875 4.40234 0.929688 4.08984 0.914062 3.77344L0.890625 3.67969C0.859375 3.67969 0.804688 3.61719 0.726562 3.49219C0.695312 3.46094 0.625 3.44531 0.515625 3.44531L0.445312 3.35156V3.32812C0.464844 3.26562 0.535156 3.23438 0.65625 3.23438H0.867188V3.21094L0.84375 2.95312L0.890625 2.85938C0.84375 2.57812 0.804688 2.4375 0.773438 2.4375L0.796875 2.32031C0.71875 2.06641 0.65625 1.77734 0.609375 1.45312C0.53125 1.14844 0.34375 0.898437 0.046875 0.703125L0 0.539062V0.46875L0.046875 0.421875ZM1.26562 1.6875C1.3125 1.89063 1.33594 2.17188 1.33594 2.53125L1.28906 3.11719C1.31641 3.11719 1.34766 3.1875 1.38281 3.32812C1.44922 3.39062 1.52734 3.42188 1.61719 3.42188H2.17969C2.41406 3.28906 2.66406 3.17969 2.92969 3.09375C3.24219 2.89844 3.39844 2.67188 3.39844 2.41406L3.46875 1.96875V1.82812C3.37891 1.5625 3.26172 1.42969 3.11719 1.42969C2.79688 1.27734 2.4375 1.17578 2.03906 1.125H1.66406C1.47656 1.18359 1.38281 1.24609 1.38281 1.3125L1.26562 1.6875ZM1.33594 3.86719V3.91406L1.35938 4.10156L1.33594 4.21875C1.36719 4.67188 1.39844 4.89844 1.42969 4.89844L1.38281 6.375C1.40625 6.375 1.42969 6.40625 1.45312 6.46875L1.42969 6.75C1.47266 6.89453 1.52734 7.01172 1.59375 7.10156L1.57031 7.45312H1.61719L1.89844 7.42969L1.94531 7.47656H2.41406C2.58594 7.41406 2.70312 7.35156 2.76562 7.28906H2.78906L2.8125 7.3125C3.26172 7.12109 3.62891 6.87109 3.91406 6.5625C3.99219 6.4375 4.03125 6.33594 4.03125 6.25781V6.14062L3.96094 5.95312L3.98438 5.92969V5.90625L3.65625 5.22656C3.625 4.98047 3.42969 4.72266 3.07031 4.45312C3.07031 4.39844 2.97656 4.34375 2.78906 4.28906C2.625 4.11719 2.29688 3.97656 1.80469 3.86719L1.47656 3.82031H1.38281L1.33594 3.86719ZM7.94531 0.480469C8.26172 0.511719 8.41992 0.566406 8.41992 0.644531V0.720703C8.41992 0.818359 8.38477 0.880859 8.31445 0.908203H8.17969L8.12695 0.855469V0.802734L8.17969 0.75V0.773438L8.15625 0.855469H8.28516L8.36719 0.75C8.33594 0.644531 8.25586 0.591797 8.12695 0.591797C7.79102 0.619141 7.41992 0.769531 7.01367 1.04297C6.51367 1.28906 6.25781 2.07813 6.24609 3.41016L6.27539 3.56836C6.25195 3.6582 6.22461 3.70312 6.19336 3.70312L6.22266 3.89062V3.99609L6.19336 4.18359C6.2207 4.18359 6.26562 4.24609 6.32812 4.37109V4.42383C6.32812 4.79883 6.39844 5.33984 6.53906 6.04688L6.46289 6.12891V6.18164C6.51367 6.18164 6.5918 6.50977 6.69727 7.16602C6.76758 7.4082 6.94531 7.60352 7.23047 7.75195L7.41211 7.93945V7.99219L7.35938 8.04492C7.19531 7.99023 6.91406 7.94531 6.51562 7.91016C6.04297 7.91016 5.4082 8.03516 4.61133 8.28516H4.5293L4.44727 8.20312L5.02734 7.91016C5.25781 7.79297 5.42578 7.60742 5.53125 7.35352V7.29492L5.50781 7.11328C5.55469 7.11328 5.60742 6.98047 5.66602 6.71484C5.7168 6.67188 5.74219 6.60938 5.74219 6.52734V6.23438L5.68945 6.15234V6.07031C5.7793 5.68359 5.82422 5.38281 5.82422 5.16797V5.0625L5.74219 4.6875V4.37109L5.80078 4.20703L5.82422 2.71875V2.37305C5.78906 1.81445 5.70898 1.52148 5.58398 1.49414C5.33789 1.36914 5.14453 1.30664 5.00391 1.30664H4.92188C4.80078 1.38086 4.74023 1.48828 4.74023 1.62891C4.74023 1.65625 4.80078 1.70117 4.92188 1.76367L5.08008 1.70508V1.73438C5.06445 1.78906 5.01172 1.81641 4.92188 1.81641C4.80859 1.81641 4.72266 1.75391 4.66406 1.62891V1.52344C4.66406 1.34766 4.75977 1.21289 4.95117 1.11914L5.08008 1.14844H5.45508L6.48633 0.884766C7.12305 0.615234 7.60938 0.480469 7.94531 0.480469ZM5.02734 1.54688H5.05664L5.13867 1.62891V1.65234L5.08008 1.70508L5.02734 1.54688ZM13.7227 0.105469H13.8223C14.0254 0.105469 14.1426 0.21875 14.1738 0.445312V0.474609C14.1738 0.611328 14.1074 0.679688 13.9746 0.679688C13.873 0.679688 13.8223 0.619141 13.8223 0.498047V0.421875L13.8984 0.339844H13.9746V0.392578C13.9082 0.392578 13.875 0.410156 13.875 0.445312C13.875 0.550781 13.9238 0.603516 14.0215 0.603516L14.0977 0.474609C14.0664 0.314453 14 0.234375 13.8984 0.234375C13.2734 0.234375 12.5625 0.699219 11.7656 1.62891C11.4453 1.85547 11.0391 2.25 10.5469 2.8125C10.3984 2.89062 10.0762 3.16211 9.58008 3.62695L10.248 4.57031C10.5098 5.02734 10.7754 5.67578 11.0449 6.51562C11.1426 6.71094 11.2734 7.05273 11.4375 7.54102L11.4668 7.56445C11.5527 7.66992 11.6094 7.85352 11.6367 8.11523C11.6914 8.11523 11.7344 8.21289 11.7656 8.4082C12.1211 9.16992 12.3594 9.57031 12.4805 9.60938C12.7227 10.0508 13.3516 10.4199 14.3672 10.7168C14.6016 10.7168 14.7676 10.7344 14.8652 10.7695C14.8652 10.7422 15.0137 10.6797 15.3105 10.582C15.5254 10.4492 15.6328 10.2402 15.6328 9.95508V9.69141C15.6328 9.35938 15.5684 9.19336 15.4395 9.19336L15.0879 9.16406H15.0645C14.9121 9.16406 14.7559 9.32227 14.5957 9.63867V9.69141C14.5957 9.91406 14.7363 10.0977 15.0176 10.2422C15.2129 10.1133 15.3105 10.0352 15.3105 10.0078V9.84961C15.3105 9.60352 15.2617 9.48047 15.1641 9.48047H15.1406C14.9414 9.52734 14.8418 9.62305 14.8418 9.76758V9.84961C14.873 9.91211 14.9219 9.95508 14.9883 9.97852L15.0879 9.74414L15.0645 9.66211H14.9883C14.957 9.66211 14.9414 9.68945 14.9414 9.74414H14.8887V9.66211L14.9883 9.55664H15.0645L15.2109 9.71484C15.1328 9.99609 15.0684 10.1367 15.0176 10.1367C14.8926 10.1367 14.7832 10.0137 14.6895 9.76758V9.74414C14.7871 9.46289 14.9121 9.32227 15.0645 9.32227H15.3398C15.3945 9.34961 15.4434 9.5957 15.4863 10.0605C15.4863 10.123 15.3535 10.2266 15.0879 10.3711H14.9648C14.6328 10.1328 14.4668 9.94141 14.4668 9.79688C14.5215 9.30859 14.6055 9.06445 14.7188 9.06445L15.6328 8.92969C15.6875 8.92969 15.8125 9.34961 16.0078 10.1895C15.8008 10.5957 15.5449 10.8672 15.2402 11.0039L14.918 11.1855H14.8652L13.6992 10.8457C13.0781 10.627 12.748 10.4863 12.709 10.4238C12.0879 9.87695 11.7734 9.50977 11.7656 9.32227C11.7656 9.24414 11.666 9.06055 11.4668 8.77148C11.4668 8.64648 11.416 8.55078 11.3145 8.48438L10.4004 5.91211L9.7793 4.88672C9.38086 4.39844 9.16406 4.15234 9.12891 4.14844C9.04688 4.29688 9.00586 4.67383 9.00586 5.2793C9.13867 6.14258 9.20508 6.83398 9.20508 7.35352C9.52539 7.6543 9.79883 7.84766 10.0254 7.93359V7.98633L9.65039 7.91016C9.38086 7.91016 8.91016 8.04102 8.23828 8.30273L7.76367 8.46094V8.4082C7.88086 8.4082 8.09766 8.24219 8.41406 7.91016C8.5 7.8125 8.55664 7.62695 8.58398 7.35352L8.53711 6.43359L8.60742 6.38086L8.53711 5.22656C8.56836 5.14844 8.58398 5.03516 8.58398 4.88672V4.49414L8.56055 3.99023L8.58398 3.57422V3.49219C8.52539 3.38672 8.39258 3.33398 8.18555 3.33398C8.04492 3.33398 7.94727 3.38672 7.89258 3.49219V3.52148L7.96289 3.59766C8.04492 3.59766 8.08594 3.57227 8.08594 3.52148H8.13867V3.62695L8.03906 3.73242H7.93945C7.82227 3.73242 7.76367 3.66992 7.76367 3.54492V3.49219C7.76367 3.30078 7.91406 3.16992 8.21484 3.09961H8.51367L8.53711 3.12305H8.56055V2.91797L8.58398 2.73047C8.52148 2.73047 8.48047 2.5293 8.46094 2.12695L8.48438 2.05078C8.44531 2.05078 8.4043 1.92773 8.36133 1.68164C8.06836 1.47461 7.78906 1.35156 7.52344 1.3125H7.4707C7.3418 1.3125 7.25 1.36523 7.19531 1.4707V1.49414C7.19531 1.61914 7.25391 1.68164 7.37109 1.68164L7.44727 1.59961V1.54688L7.39453 1.49414H7.32422V1.59961H7.27148V1.52344L7.34766 1.44727H7.42383C7.4707 1.46289 7.49414 1.51367 7.49414 1.59961V1.65234C7.4668 1.72266 7.41016 1.75781 7.32422 1.75781H7.29492C7.16211 1.69922 7.0957 1.5957 7.0957 1.44727C7.0957 1.33008 7.17969 1.25 7.34766 1.20703L7.4707 1.23633C7.83398 1.23633 8.18945 1.18359 8.53711 1.07812L8.56055 1.10156H8.58398C9.0918 0.96875 9.49805 0.785156 9.80273 0.550781H9.82617V0.603516C9.70898 0.728516 9.56055 0.929688 9.38086 1.20703C9.08398 1.48437 8.93555 2.10742 8.93555 3.07617C8.90039 3.07617 8.88281 3.12695 8.88281 3.22852H8.90625L9.25781 3.38672C9.38672 3.37109 9.50195 3.30078 9.60352 3.17578L10.125 2.75977C10.1992 2.75977 10.4219 2.52344 10.793 2.05078C11.0078 1.85156 11.1152 1.68359 11.1152 1.54688V1.49414C11.041 1.2168 10.9258 1.07812 10.7695 1.07812H10.6934V1.02539C11.5254 0.923828 12.0566 0.775391 12.2871 0.580078C12.2871 0.505859 12.5684 0.373047 13.1309 0.181641L13.7227 0.105469ZM15.1348 0.978516C15.1348 1.02148 15.3945 1.07617 15.9141 1.14258L16.8516 1.57617C17.1328 1.77148 17.2734 1.99414 17.2734 2.24414C17.2734 2.39258 17.125 2.70508 16.8281 3.18164C16.6055 3.43555 16.4336 3.5625 16.3125 3.5625C16.3125 3.59766 16.1953 3.6543 15.9609 3.73242C15.625 3.95508 15.3027 4.06641 14.9941 4.06641C14.9902 4.10156 14.9277 4.13281 14.8066 4.16016C15.3223 4.74219 15.5801 5.0625 15.5801 5.12109C15.5801 5.16406 15.7617 5.45898 16.125 6.00586C16.2109 6.1543 16.2812 6.31445 16.3359 6.48633L16.6641 7.10742L16.6875 7.08398H16.7344V7.13086H16.6875V7.17773C16.7305 7.18164 16.8164 7.32617 16.9453 7.61133C17.3359 8.2832 17.752 8.86523 18.1934 9.35742C18.1934 9.50586 18.5527 9.76953 19.2715 10.1484C19.2715 10.25 19.5684 10.3281 20.1621 10.3828H20.1855C20.4316 10.3828 20.6914 10.248 20.9648 9.97852C21.207 9.73633 21.332 9.54492 21.3398 9.4043C21.3398 9.22852 21.2305 8.94922 21.0117 8.56641H20.9648C20.4297 8.66797 20.1621 8.79688 20.1621 8.95312V9.07031C20.1621 9.45312 20.2324 9.64453 20.373 9.64453L20.5898 9.66797C20.8555 9.66797 20.9883 9.58789 20.9883 9.42773L21.0586 9.25781C21.0586 9.16016 20.9492 9.05078 20.7305 8.92969L20.6367 8.90625C20.5352 8.90625 20.4551 8.96094 20.3965 9.07031V9.1875C20.3965 9.33203 20.4609 9.4043 20.5898 9.4043C20.6719 9.4043 20.7344 9.36328 20.7773 9.28125V9.16406L20.707 9.09375H20.6836C20.5977 9.09375 20.543 9.125 20.5195 9.1875V9.23438L20.5664 9.28125H20.6602L20.6836 9.21094L20.6367 9.16406V9.14062H20.6602L20.707 9.1875V9.28125C20.6914 9.33203 20.6445 9.35742 20.5664 9.35742C20.4688 9.29102 20.4199 9.21094 20.4199 9.11719L20.6836 8.95312C20.8242 9.02734 20.8945 9.12109 20.8945 9.23438V9.33398C20.7148 9.47461 20.582 9.54492 20.4961 9.54492C20.3359 9.3418 20.2559 9.19922 20.2559 9.11719C20.3301 8.94922 20.4414 8.82227 20.5898 8.73633H20.6367C20.7734 8.74414 20.9531 8.87891 21.1758 9.14062V9.23438C21.1602 9.39844 21.0898 9.58203 20.9648 9.78516H20.7539L20.3027 9.80859C20.1309 9.80859 20.0449 9.63281 20.0449 9.28125C19.998 9.22266 19.9746 9.16016 19.9746 9.09375V8.75977C20.1699 8.63477 20.4688 8.52344 20.8711 8.42578C21.0664 8.42578 21.1992 8.51367 21.2695 8.68945C21.3203 8.70508 21.4297 8.98242 21.5977 9.52148L21.6445 9.59766C21.2031 10.1836 20.7949 10.5098 20.4199 10.5762L19.7402 10.5996L18.9434 10.3359C18.9082 10.2969 18.5859 10.1289 17.9766 9.83203C17.4609 9.26953 17.1484 8.80859 17.0391 8.44922C16.9688 8.40625 16.8047 8.16602 16.5469 7.72852L15.7676 6.50977L15.5098 5.83594C15.4277 5.76562 15.334 5.63086 15.2285 5.43164C15.1543 5.37695 14.9512 5.12109 14.6191 4.66406C14.4121 4.45703 14.2559 4.35352 14.1504 4.35352H14.0098L13.9395 4.42383V4.44727C13.9395 4.49805 13.9785 4.52344 14.0566 4.52344V4.57031H13.9863V4.75781L14.0566 4.85742L14.0801 5.33789L14.0566 5.85938L14.2676 6.86719C14.2988 6.86719 14.3145 6.9082 14.3145 6.99023C14.4512 7.32617 14.6855 7.58789 15.0176 7.77539C15.0176 7.8418 15.1738 7.92969 15.4863 8.03906H15.6738V8.11523L15.4863 8.13867C14.9316 7.99414 14.5176 7.92188 14.2441 7.92188C13.7949 7.92188 13.2539 8.04102 12.6211 8.2793L12.3867 8.30273L12.3633 8.2793V8.20898C12.5703 8.20898 12.8516 8.0332 13.207 7.68164C13.4453 7.49023 13.5645 7.24219 13.5645 6.9375L13.6348 6.58008L13.6113 6.50977L13.6348 6.38672L13.5879 5.93555L13.6113 5.67188V4.99805L13.5879 4.75781L13.6113 4.54688V4.33008L13.4883 4.30664H13.418C13.3203 4.30664 13.2422 4.36133 13.1836 4.4707V4.5C13.2188 4.5625 13.2578 4.59375 13.3008 4.59375V4.64062C13.082 4.64062 12.9727 4.56055 12.9727 4.40039C12.9727 4.24023 13.1523 4.12891 13.5117 4.06641H13.5645V3.99609L13.5117 3.91992V3.65625C13.4648 3.65625 13.4414 3.5293 13.4414 3.27539L13.3945 3.22852L13.418 3.05859V2.84766C13.418 2.71484 13.3945 2.60938 13.3477 2.53125L13.3711 2.26758C13.3359 2.26758 13.2812 2.0918 13.207 1.74023C13.1641 1.70898 13.125 1.61328 13.0898 1.45312C13.0469 1.35938 12.9688 1.3125 12.8555 1.3125L12.5742 1.40625L12.5273 1.33594V1.3125C12.7539 1.13672 13.623 1.02539 15.1348 0.978516ZM14.3379 1.55273L14.2676 1.5293C14.0957 1.58789 14.0098 1.68359 14.0098 1.81641C13.9473 1.81641 13.916 1.99219 13.916 2.34375L13.9629 2.46094L13.916 2.50781V2.60742L13.9395 2.70117L13.916 2.87109V3.08203L13.9395 3.73242L13.9863 3.7793L13.9629 3.99609H13.9863C14.0879 3.92969 14.166 3.89648 14.2207 3.89648H14.5723C15.123 3.73633 15.5371 3.58594 15.8145 3.44531C16.2363 3.1875 16.5039 2.86719 16.6172 2.48438V2.36719C16.5078 1.96875 16.3672 1.76953 16.1953 1.76953C15.9844 1.57812 15.7324 1.48242 15.4395 1.48242H15.416L15.3457 1.50586L15.2285 1.48242H15.1816L14.5723 1.50586L14.502 1.48242L14.3379 1.55273ZM19.0078 1.06641C19.1211 1.06641 19.4883 1.23828 20.1094 1.58203L20.3672 1.60547H20.4844C20.5742 1.60547 20.7461 1.52734 21 1.37109L21.1172 1.34766L21.1406 1.37109V1.41797C21.043 1.52344 20.9414 1.67187 20.8359 1.86328L20.8828 1.98047L20.8594 2.00391L20.9297 2.44922L20.8828 2.49609V2.51953C20.9727 2.63672 21.0273 2.76953 21.0469 2.91797C21.0898 2.91797 21.168 3.10547 21.2812 3.48047C21.4531 3.75 21.5391 3.95312 21.5391 4.08984C21.5859 4.15625 21.6094 4.33594 21.6094 4.62891V4.69922C21.7188 4.69922 21.8594 4.62891 22.0312 4.48828V4.44141L22.0078 4.41797V4.39453L22.0312 4.37109H22.0547L22.125 4.44141V4.58203C22.125 4.76562 22.0078 4.90625 21.7734 5.00391C21.7734 5.08594 21.8125 5.14844 21.8906 5.19141L21.8672 5.30859C22.0547 5.78125 22.1875 6.19531 22.2656 6.55078C22.3281 6.64844 22.375 6.78125 22.4062 6.94922H22.3828C22.7305 7.79297 23.0742 8.29297 23.4141 8.44922L23.8359 8.66016V8.70703C23.4844 8.60547 22.9375 8.38672 22.1953 8.05078H21.9609C21.6484 8.05078 21.2578 8.15234 20.7891 8.35547C20.7266 8.33203 20.6953 8.30859 20.6953 8.28516C21.1992 7.98828 21.4648 7.72266 21.4922 7.48828C21.5352 7.48828 21.5742 7.12891 21.6094 6.41016L21.5391 5.98828C21.5078 5.98828 21.4688 5.84766 21.4219 5.56641L21.3984 5.54297L21.4219 5.42578C21.2109 5.3125 21.0781 5.22656 21.0234 5.16797C20.7422 5.22266 20.6016 5.27734 20.6016 5.33203L19.9688 5.37891H19.7812C19.6992 5.37891 19.6289 5.40234 19.5703 5.44922H19.4531C19.4531 5.49609 19.4219 5.54297 19.3594 5.58984L19.3828 5.61328V5.63672C19.3359 5.71094 19.2812 6.03125 19.2188 6.59766L19.2422 6.66797L19.2188 7.04297V7.23047L19.1953 7.37109C19.3047 7.63672 19.4141 7.82422 19.5234 7.93359L19.8281 8.26172L19.7812 8.30859C19.1172 8.04297 18.4766 7.91016 17.8594 7.91016H17.8125C17.6328 7.91016 17.3672 7.94141 17.0156 8.00391L16.9922 7.98047V7.93359C17.5898 7.73828 17.9961 7.42578 18.2109 6.99609C18.4453 6.52734 18.6172 6.12109 18.7266 5.77734C18.7578 5.76953 18.7891 5.73047 18.8203 5.66016L18.7969 5.58984H18.7734L17.8359 6.01172C17.6953 6.10156 17.625 6.19531 17.625 6.29297V6.36328C17.6875 6.47266 17.7812 6.52734 17.9062 6.52734C18.0625 6.49219 18.1406 6.41406 18.1406 6.29297C18.1211 6.22266 18.0586 6.16797 17.9531 6.12891C17.8867 6.14453 17.832 6.18359 17.7891 6.24609C17.7891 6.31641 17.8359 6.36328 17.9297 6.38672L18 6.26953L17.9297 6.22266L17.8594 6.26953V6.24609L17.9297 6.17578H17.9531L18.0469 6.26953V6.36328L17.9766 6.43359H17.9297C17.7891 6.40234 17.7188 6.36328 17.7188 6.31641V6.19922C17.7188 6.08984 17.7969 6.03516 17.9531 6.03516C18.0625 6.03516 18.1641 6.11328 18.2578 6.26953V6.36328C18.2578 6.51562 18.1406 6.60938 17.9062 6.64453H17.7422C17.5234 6.59766 17.4141 6.50391 17.4141 6.36328V6.33984C17.4141 6.04688 17.5469 5.84375 17.8125 5.73047L19.0312 5.12109V5.09766L19.0078 5.07422L19.1719 4.76953C19.1719 4.59375 19.2344 4.4375 19.3594 4.30078V3.97266C19.3594 3.89453 19.4141 3.82422 19.5234 3.76172L19.6875 3.15234C19.75 2.97656 19.8047 2.70312 19.8516 2.33203C19.6953 1.88281 19.5547 1.60938 19.4297 1.51172C19.4297 1.48047 19.2969 1.36328 19.0312 1.16016L18.9844 1.08984L19.0078 1.06641ZM19.5234 4.93359L19.6641 4.98047C20.4453 4.89844 20.8359 4.84375 20.8359 4.81641C20.8398 4.78516 20.8945 4.76172 21 4.74609V4.69922H20.9297V4.62891L20.9531 4.53516L20.5312 3.12891L20.4141 2.89453V2.75391H20.3672C20.3438 2.75391 20.2812 2.88672 20.1797 3.15234C20.0391 3.67969 19.9219 3.97656 19.8281 4.04297C19.6875 4.32422 19.5859 4.62109 19.5234 4.93359ZM25.2188 0L25.248 0.0292969C25.0566 0.423828 24.9609 0.738281 24.9609 0.972656C24.9805 1.13281 25.0566 1.38477 25.1895 1.72852L25.1602 1.75781C25.1602 2.02344 25.3027 2.51953 25.5879 3.24609C25.6191 3.64453 25.7344 4.00781 25.9336 4.33594C25.9414 4.41406 26.0449 4.61719 26.2441 4.94531H26.2734C26.332 4.67969 26.4375 4.41602 26.5898 4.1543L27.0469 3.39844C27.1992 2.73828 27.4453 2.08008 27.7852 1.42383C27.8438 1.42383 27.873 1.2832 27.873 1.00195V0.820312C27.873 0.71875 27.7969 0.587891 27.6445 0.427734V0.333984H27.6738C27.9121 0.548828 28.1582 0.720703 28.4121 0.849609C28.7051 1.05273 28.9727 1.29492 29.2148 1.57617L29.1562 1.64062H29.127L28.8984 1.48828H28.7812C28.6875 1.48828 28.6035 1.53906 28.5293 1.64062V1.69922L28.6113 2.63672C28.5801 2.63672 28.5527 3.19336 28.5293 4.30664C28.5293 4.48242 28.5762 4.73633 28.6699 5.06836V5.82422C28.7285 5.89844 28.7578 5.96875 28.7578 6.03516L28.582 6.31055V6.36914C28.6211 6.41211 28.6504 6.54492 28.6699 6.76758C28.7285 6.76758 28.8145 7.06055 28.9277 7.64648C29.2051 8.00195 29.3848 8.18359 29.4668 8.19141C29.5879 8.35156 29.998 8.6543 30.6973 9.09961C30.7676 9.09961 30.8711 9.17969 31.0078 9.33984L32.7188 10.2188C33.9609 10.7461 34.8164 11.0098 35.2852 11.0098L35.5137 10.9805L35.6016 11.0098C35.9062 10.873 36.1523 10.6797 36.3398 10.4297C36.4531 10.2148 36.5098 10.043 36.5098 9.91406V9.82617C36.3652 9.36133 36.1855 9.12891 35.9707 9.12891H35.8301C35.5137 9.12891 35.2852 9.31055 35.1445 9.67383C35.1445 9.91992 35.3066 10.1113 35.6309 10.248C35.9707 10.248 36.1406 10.127 36.1406 9.88477V9.76758C36.1406 9.56836 35.998 9.44531 35.7129 9.39844H35.6016L35.4316 9.67383C35.498 9.91602 35.5645 10.0371 35.6309 10.0371H35.7129C35.8848 10.0371 35.9707 9.9668 35.9707 9.82617C35.9434 9.62305 35.8574 9.52148 35.7129 9.52148L35.6016 9.67383C35.6016 9.83398 35.6777 9.91406 35.8301 9.91406C35.8301 9.95703 35.8008 9.97852 35.7422 9.97852C35.6172 9.92383 35.541 9.86328 35.5137 9.79688V9.73242C35.5137 9.57227 35.6191 9.47266 35.8301 9.43359C35.998 9.57812 36.082 9.75 36.082 9.94922L35.7129 10.1895C35.5254 10.084 35.3926 9.95312 35.3145 9.79688V9.70312C35.3145 9.64453 35.3809 9.50391 35.5137 9.28125C36.0098 9.28125 36.2578 9.42188 36.2578 9.70312L36.2871 10.0664V10.1602C36.209 10.2773 36.0176 10.3789 35.7129 10.4648H35.6543C35.4277 10.4648 35.2012 10.1699 34.9746 9.58008C35.3809 9.11133 35.7031 8.86133 35.9414 8.83008C36.3789 9.13086 36.5977 9.38086 36.5977 9.58008C36.6523 9.58008 36.7285 9.74219 36.8262 10.0664C36.791 10.2578 36.5059 10.623 35.9707 11.1621C35.7715 11.2637 35.5234 11.3145 35.2266 11.3145H34.7461C34.2383 11.3145 33.3066 10.9707 31.9512 10.2832L31.4062 10.0078C31.332 9.92578 31.2188 9.88477 31.0664 9.88477C29.6367 8.91602 28.8945 8.43164 28.8398 8.43164C28.3477 8.29102 27.9492 8.2207 27.6445 8.2207L26.8711 8.37305V8.34375C26.8711 8.3125 27.0332 8.17969 27.3574 7.94531C27.7363 7.40625 27.9258 7.0332 27.9258 6.82617L27.9844 6.28125L27.9551 5.00391L28.0137 4.61133L27.9844 4.37109L28.0137 4.21875C27.9941 3.80078 27.957 3.49609 27.9023 3.30469V2.88281H27.873C27.873 3.00781 27.7207 3.40234 27.416 4.06641C27.416 4.18359 27.3594 4.41602 27.2461 4.76367C27.1328 5.22852 27.0371 5.46094 26.959 5.46094C26.959 5.51953 26.9121 5.59961 26.8184 5.70117C26.6699 6.2168 26.498 6.58203 26.3027 6.79688C26.1621 7.07812 26.0762 7.21875 26.0449 7.21875C25.9551 7.21875 25.8613 6.82422 25.7637 6.03516C25.6113 5.05078 25.4023 4.29297 25.1367 3.76172C25.0781 3.76172 25.0488 3.68164 25.0488 3.52148L24.7324 2.82422L24.7031 2.60742C24.668 2.60742 24.6504 2.63867 24.6504 2.70117L24.6211 3.09375L24.6797 3.82031C24.6641 4.16406 24.6348 4.33594 24.5918 4.33594L24.6211 4.79297V4.82227L24.5332 5.70117C24.5332 6.43164 24.752 7.17969 25.1895 7.94531L25.3887 8.00977V8.06836H25.1895L23.9355 7.91602H23.7949C23.5488 7.91602 23.2539 7.97656 22.9102 8.09766H22.8809C23.5098 7.57422 23.8242 6.87695 23.8242 6.00586C23.8242 5.55273 23.8906 4.99609 24.0234 4.33594L24.0762 3.66797L24.0527 3.15234V3.06445L23.9941 2.88281L24.0234 2.75977L23.9941 2.33789V2.27344L23.9355 2.18555V2.12109L23.9941 2.0332V1.93945C23.9941 1.77148 23.9375 1.66016 23.8242 1.60547C23.3281 1.63672 23.0801 1.71875 23.0801 1.85156V1.88086C23.0801 2.04492 23.1465 2.15625 23.2793 2.21484C23.373 2.1875 23.4199 2.11719 23.4199 2.00391L23.3672 1.93945H23.3086C23.2695 1.93945 23.25 1.9707 23.25 2.0332H23.1973V1.93945C23.2129 1.88086 23.2695 1.85156 23.3672 1.85156L23.4785 1.97461V2.0332C23.4785 2.19336 23.3848 2.27344 23.1973 2.27344C23.0254 2.19531 22.9395 2.06445 22.9395 1.88086V1.85156C22.9395 1.58203 23.1582 1.42969 23.5957 1.39453L23.9941 1.18359L24.3633 0.972656C24.6797 0.433594 24.9648 0.109375 25.2188 0ZM35.8828 9.73242L35.9121 9.76758V9.85547L35.8594 9.91406H35.8301L35.8594 9.88477V9.85547L35.8301 9.76758L35.8594 9.73242H35.8828Z" fill="white"/>
</svg>